<svg id="Capa_1" enable-background="new 0 0 515.556 515.556" height="512" viewBox="0 0 515.556 515.556" width="512" xmlns="http://www.w3.org/2000/svg"><path d="m257.778 64.444c-119.112 0-220.169 80.774-257.778 193.334 37.609 112.56 138.666 193.333 257.778 193.333s220.169-80.774 257.778-193.333c-37.609-112.56-138.666-193.334-257.778-193.334zm0 322.223c-71.184 0-128.889-57.706-128.889-128.889 0-71.184 57.705-128.889 128.889-128.889s128.889 57.705 128.889 128.889c0 71.182-57.705 128.889-128.889 128.889z"/><path d="m303.347 212.209c25.167 25.167 25.167 65.971 0 91.138s-65.971 25.167-91.138 0-25.167-65.971 0-91.138 65.971-25.167 91.138 0"/></svg>